<?xml version="1.0" encoding="UTF-8" standalone="no"?>
<!-- Created with Inkscape (http://www.inkscape.org/) -->

<svg
   width="105mm"
   height="115mm"
   viewBox="0 0 105 115"
   version="1.1"
   id="svg1"
   xml:space="preserve"
   xmlns="http://www.w3.org/2000/svg"
   xmlns:svg="http://www.w3.org/2000/svg"
   xmlns:rdf="http://www.w3.org/1999/02/22-rdf-syntax-ns#"
   xmlns:cc="http://creativecommons.org/ns#"
   xmlns:dc="http://purl.org/dc/elements/1.1/"><title
     id="title2">ranx logo</title><defs
     id="defs1" /><g
     id="layer1"><path
       style="fill:#aaaaaa"
       d="m 51.805122,112.31903 -1.0043,-0.57657 -14.81667,-8.60586 -14.81667,-8.605877 -8.20208,-4.69577 -8.2020809,-4.69577 -0.99345,-0.64039 -0.99346,-0.64038 0.0674,-26.601595 0.0674,-26.6016 16.9333409,-9.80208 16.93333,-9.80208 7.8018,-4.5360002 7.80181,-4.535995 0.29102,-0.07724 0.29102,-0.07724 6.06238,3.535765 6.06239,3.53576 18.65312,10.8111802 18.653118,10.81118 0.14072,0.2046 0.14072,0.20461 -0.008,26.52667 -0.008,26.526655 -3.439588,2.02116 -3.43958,2.02116 -11.50937,6.61974 -11.50938,6.619737 -9.97591,5.81641 -9.9759,5.81639 z m 1.97793,-7.38927 0.98652,-0.63368 5.68854,-3.30397 5.68854,-3.303967 8.33437,-4.81966 8.33438,-4.81966 6.68073,-3.83088 6.68073,-3.830885 -0.0102,-23.06441 -0.0102,-23.06442 -10.24244,-5.94065 -10.24244,-5.94066 -11.30015,-6.56091 -11.30014,-6.5609102 h -0.25897 -0.25898 l -3.12525,1.8146402 -3.12526,1.81463 -8.59896,4.97473 -8.59896,4.97472 -2.11666,1.22535 -2.11667,1.22534 -7.73502,4.48686 -7.7350209,4.48686 -0.0702,21.96041 -0.0702,21.96042 0.0805,1.10741 0.0805,1.1074 7.3278109,4.224635 7.32781,4.22464 12.30313,7.13679 12.30312,7.136807 1.98437,1.20446 1.98438,1.20446 0.0718,0.0189 0.0718,0.0189 z m -6.28953,-5.203697 -4.10104,-2.39404 -6.01927,-3.4635 -6.01927,-3.46349 0.0101,-19.209865 0.0102,-19.20986 5.72561,-3.175 5.72561,-3.175 1.14341,-0.72178 1.14341,-0.72177 v -10.06 -10.05999 h -0.15937 -0.15938 l -3.40557,1.91823 -3.40557,1.91823 -0.007,4.40759 -0.007,4.4076 -2.84427,1.59649 -2.84428,1.5965 -0.46302,0.17578 -0.46302,0.17578 v -8.05605 -8.05605 l 1.38907,-0.75257 1.38906,-0.75257 8.06979,-4.67455 8.06979,-4.67456 0.59379,-0.31196 0.59379,-0.31196 0.0677,44.72308 0.0677,44.723092 v -0.002 -0.002 z m -2.38125,-28.445575 v -19.20169 l -0.34428,0.0855 -0.34429,0.0855 -3.2297,1.83698 -3.2297,1.83698 0.0683,15.35092 0.0683,15.350905 3.175,1.91132 3.175,1.91131 0.33073,0.0169 0.33073,0.0169 z m 8.99847,30.380342 0.003,-0.19844 -0.0688,-44.386812 -0.0688,-44.38681 0.39688,0.14949 0.39687,0.14948 9.71707,5.60816 9.71708,5.60816 0.006,33.08328 0.006,33.083275 -3.30627,1.89029 -3.30627,1.89028 -0.0672,-33.120995 -0.0672,-33.12101 -3.29423,-1.9187 -3.29423,-1.91871 h -0.2115 -0.2115 v 37.11585 37.115855 l -3.0307,1.777887 -3.03069,1.77792 h -0.14348 -0.1443 z m 22.48695,-20.085672 v -7.37004 l 2.41564,-7.67032 2.41564,-7.67032 0.24804,-0.79375 0.24803,-0.79375 -2.66792,-8.66805 -2.66792,-8.66806 0.0704,-7.12501 0.0704,-7.12501 3.24115,1.85716 3.24114,1.85717 -0.007,4.67548 -0.007,4.67548 0.98142,3.50573 0.98143,3.50573 h 0.15311 0.15311 l 0.92319,-3.10885 0.92318,-3.10886 0.1323,-3.75345 0.13229,-3.75346 3.10623,1.76908 3.10624,1.76908 0.003,2.68194 0.003,2.68194 -2.51355,8.02532 -2.51354,8.02531 v 0.27426 0.27426 l 2.51354,8.12345 2.51355,8.12344 v 2.63284 2.63285 l -2.96313,1.67782 -2.96313,1.67782 -0.21187,0.0882 -0.21187,0.0882 0.007,-3.39548 0.007,-3.39549 -0.98142,-3.50573 -0.98143,-3.50573 h -0.17132 -0.17133 l -0.97112,3.27792 -0.97112,3.27792 v 4.91249 4.912495 l -1.78593,1.03667 -1.78594,1.03667 -1.52136,0.85234 -1.52135,0.85234 z m -61.71406,-0.78579 -3.10885,-1.72717 2.7e-4,-21.74053 2.6e-4,-21.74053 7.7388,-4.48799 7.73879,-4.48799 0.86376,-0.50136 0.86376,-0.50136 -0.07,8.16127 -0.07,8.16126 -3.175,1.79199 -3.175,1.79199 -0.13229,-4.20589 -0.13229,-4.20588 -1.98438,1.12919 -1.98437,1.1292 -0.13229,21.58049 -0.13229,21.58049 z"
       id="path2" /></g><metadata
     id="metadata2"><rdf:RDF><cc:Work
         rdf:about=""><dc:title>ranx logo</dc:title></cc:Work></rdf:RDF></metadata></svg>
